<?xml version="1.0" encoding="utf-8"?>
<!-- Generated by IcoMoon.io -->
<!DOCTYPE svg PUBLIC "-//W3C//DTD SVG 1.1//EN" "http://www.w3.org/Graphics/SVG/1.1/DTD/svg11.dtd">
<svg version="1.1" xmlns="http://www.w3.org/2000/svg" xmlns:xlink="http://www.w3.org/1999/xlink" width="30" height="30" viewBox="0 0 30 30">
<g>
</g>
	<path d="M24.999 0h-19.999c-2.75 0-5.001 2.25-5.001 5v20c0 2.75 2.25 5.001 5.001 5.001h19.999c2.752 0 5.001-2.25 5.001-5.001v-20c0-2.75-2.249-5-5.001-5zM7.5 7.5h15c0.268 0 0.527 0.057 0.766 0.166l-8.266 9.644-8.266-9.644c0.238-0.108 0.498-0.166 0.766-0.166zM5.625 20.625v-11.25c0-0.039 0.002-0.078 0.004-0.117l5.498 6.414-5.437 5.438c-0.042-0.156-0.065-0.319-0.065-0.485zM22.5 22.5h-15c-0.166 0-0.328-0.022-0.485-0.065l5.335-5.335 2.649 3.091 2.649-3.091 5.335 5.335c-0.156 0.042-0.319 0.065-0.485 0.065zM24.375 20.625c0 0.166-0.022 0.328-0.065 0.485l-5.437-5.437 5.498-6.414c0.002 0.039 0.004 0.078 0.004 0.117v11.25z" fill="#ffffff" />
</svg>
